<?xml version="1.0" encoding="UTF-8"?>
<svg version="1.1" xmlns="http://www.w3.org/2000/svg" width="1862" height="1861">
<path d="M0 0 C0.86834473 0.17160645 1.73668945 0.34321289 2.63134766 0.52001953 C54.81114005 11.20031726 101.26918832 41.4377266 132 85 C132.61149902 85.86044922 132.61149902 85.86044922 133.23535156 86.73828125 C165.26910039 132.43067532 176.06653188 189.4428641 166.734375 244.05810547 C159.76281699 281.90270211 142.42789116 317.23041674 116.30078125 345.48828125 C115.06971277 346.8322151 113.84467595 348.18263522 112.66393327 349.57099199 C107.12799415 356.06567199 101.09278109 362.0461311 95.0570612 368.06877995 C93.83855234 369.28833302 92.62026248 370.50810494 91.40217081 371.7280747 C88.05434379 375.07979295 84.70341552 378.42839552 81.35197127 381.77649629 C77.70634566 385.41958474 74.06362001 389.06557094 70.42052311 392.71118778 C64.03509885 399.1002247 57.64781479 405.4873976 51.25930977 411.87335396 C41.75943785 421.36944622 32.26242228 430.86839125 22.76596946 440.36790258 C6.7894273 456.34940804 -9.18950515 472.32852139 -25.16988945 488.30618477 C-25.65639315 488.79260568 -26.14289685 489.27902658 -26.64414309 489.78018752 C-27.13142638 490.26738787 -27.61870967 490.75458823 -28.12075911 491.25655224 C-42.966118 506.09938795 -57.81054065 520.9431592 -72.65403938 535.78785515 C-73.64802951 536.78192275 -74.6420198 537.7759902 -75.63601025 538.77005748 C-79.63044539 542.76480309 -83.62487642 546.75955279 -87.61930148 550.75430848 C-98.7853751 561.92129911 -109.95162193 573.08811654 -121.1180048 584.25479794 C-121.6264953 584.76330208 -122.1349858 585.27180623 -122.65888511 585.79571959 C-138.86159959 601.99884336 -155.06508204 618.20119892 -171.26908779 634.40303135 C-171.79464963 634.92852294 -172.32021148 635.45401454 -172.86169944 635.99543012 C-181.39648442 644.52907016 -189.93130666 653.06267293 -198.46613205 661.59627256 C-232.3162327 695.44151687 -266.16379149 729.28930106 -300.0090332 763.1394043 C-308.53832983 771.66992212 -317.06763153 780.20043487 -325.59696865 788.73091221 C-326.12215094 789.25616495 -326.64733323 789.78141768 -327.18843014 790.32258717 C-343.37338205 806.50969527 -359.55895484 822.69618234 -375.74520206 838.8819952 C-376.50739813 839.64417089 -376.50739813 839.64417089 -377.2849921 840.42174407 C-388.43927456 851.57571405 -399.59371759 862.72952344 -410.74830541 873.88318805 C-414.73948912 877.87404262 -418.7306648 881.86490522 -422.72183819 885.85577011 C-423.71473841 886.84859294 -424.7076393 887.8414151 -425.70054086 888.83423659 C-440.54128646 903.67378859 -455.38092664 918.51444524 -470.21981248 933.35585691 C-470.70623339 933.84236061 -471.1926543 934.32886431 -471.69381523 934.83011055 C-472.17933879 935.31571679 -472.66486235 935.80132303 -473.16509875 936.30164462 C-489.53986624 952.67917016 -505.91651976 969.05480774 -522.29530292 985.42831749 C-531.74004324 994.87011735 -541.18340171 1004.31329435 -550.62478768 1013.75844843 C-556.92759422 1020.0634933 -563.23221012 1026.36672502 -569.538315 1032.66847098 C-573.13373971 1036.26151181 -576.7283666 1039.85534108 -580.32080548 1043.45136745 C-583.5892135 1046.72300613 -586.8599147 1049.99233393 -590.13245637 1053.25983768 C-591.30826901 1054.43464354 -592.48324665 1055.61028587 -593.65728131 1056.78686855 C-599.59554687 1062.73710608 -605.56475799 1068.58047488 -612 1074 C-612.58583556 1074.50272736 -613.17167113 1075.00545473 -613.77525928 1075.52341625 C-642.51423931 1100.16548677 -678.62366605 1116.31035611 -716 1122 C-716.69689941 1122.11424316 -717.39379883 1122.22848633 -718.11181641 1122.34619141 C-748.07433589 1127.13083788 -778.91753195 1124.05414528 -808 1116 C-808.74491699 1115.79568359 -809.48983398 1115.59136719 -810.25732422 1115.38085938 C-852.13341972 1103.54242986 -890.12900238 1075.6930558 -916 1041 C-916.42522949 1040.44086914 -916.85045898 1039.88173828 -917.28857422 1039.30566406 C-950.33490823 995.77750554 -962.82085781 939.7864068 -956 886 C-950.93784444 850.21483884 -937.21530499 816.5305429 -915 788 C-914.34 787.14792969 -913.68 786.29585937 -913 785.41796875 C-898.70246218 767.46719975 -881.77464344 751.62981648 -865.56598633 735.43751878 C-861.92927035 731.80335786 -858.2954757 728.16627773 -854.66129386 724.52958298 C-848.30237699 718.16706649 -841.94161741 711.80639695 -835.57962227 705.44695854 C-826.11928229 695.99041009 -816.66181357 686.53099394 -807.20489557 677.07102353 C-791.29213416 661.15330753 -775.37699318 645.23797295 -759.460392 629.32409668 C-758.97653739 628.84032486 -758.49268278 628.35655305 -757.99416591 627.85812148 C-757.50953239 627.37357089 -757.02489887 626.88902031 -756.52557949 626.38978637 C-741.74484748 611.61158026 -726.96505506 596.83243524 -712.18618393 582.05236816 C-711.19548054 581.0615873 -710.20477699 580.07080659 -709.21407328 579.08002605 C-705.23265126 575.09829355 -701.25123334 571.11655696 -697.26982139 567.13481439 C-686.14168552 556.00576167 -675.01337658 544.87688202 -663.88493156 533.74813843 C-663.37824719 533.24144041 -662.87156283 532.7347424 -662.34952438 532.2126899 C-646.21313434 516.0758908 -630.0759771 499.93985914 -613.93829536 483.80435181 C-613.15356943 483.01973125 -613.15356943 483.01973125 -612.35299045 482.21925977 C-603.85795757 473.72537177 -595.36288739 465.23152108 -586.86781405 456.73767354 C-553.16005896 423.03477715 -519.45484937 389.32933725 -485.75195312 355.62158203 C-477.25399837 347.12240607 -468.75603855 338.62323519 -460.25804329 330.12409973 C-459.73477635 329.60076234 -459.21150941 329.07742496 -458.6723859 328.53822886 C-442.54699915 312.41068602 -426.42099164 296.28376411 -410.29430962 280.15751648 C-409.78808061 279.65130106 -409.2818516 279.14508563 -408.76028232 278.62353035 C-397.64808622 267.51164672 -386.53572955 256.39992367 -375.42322807 245.28834544 C-371.44730802 241.31275452 -367.47139599 237.33715558 -363.49548626 233.36155434 C-362.50641425 232.37255971 -361.51734157 231.38356576 -360.52826821 230.39457248 C-345.74771304 215.61521069 -330.96826283 200.83474472 -316.18956755 186.05352313 C-315.70521617 185.56908895 -315.22086479 185.08465477 -314.72183609 184.58554077 C-313.9966535 183.86023416 -313.9966535 183.86023416 -313.25682076 183.12027489 C-296.95332904 166.81402536 -280.64795173 150.50966338 -264.34044428 134.20742971 C-254.93788208 124.80780786 -245.53670157 115.40680905 -236.13749372 106.00383297 C-229.86305003 99.72715094 -223.58679698 93.45228208 -217.30905494 87.17889896 C-213.72995325 83.60218106 -210.15164923 80.02467492 -206.5755334 76.44497144 C-203.3220231 73.18823036 -200.06621947 69.9338004 -196.80857554 66.68119424 C-195.63817213 65.51179755 -194.46860359 64.34156452 -193.29997821 63.17039097 C-159.64676338 29.4490112 -120.01242651 7.63038666 -73 -1 C-72.30116699 -1.13277344 -71.60233398 -1.26554688 -70.88232422 -1.40234375 C-48.29879596 -5.49693813 -22.41692191 -4.45556427 0 0 Z " fill="#4C4E95" transform="translate(1692,737)"/>
<path d="M0 0 C0.8979126 0.47904785 0.8979126 0.47904785 1.81396484 0.96777344 C48.61531927 26.09687353 84.03876428 70.62400847 99.97021484 121.07226562 C115.75431439 174.66681433 111.52376525 233.2393004 84.99609375 282.80859375 C69.86195909 310.24777599 48.64343843 331.51060193 26.69103967 353.44983061 C23.62469201 356.51544041 20.56123802 359.58393974 17.49739397 362.65205133 C11.43333726 368.72364993 5.36662642 374.79258998 -0.7009233 380.86069765 C-7.97359982 388.13429154 -15.24339382 395.41076392 -22.51315261 402.68727379 C-40.07502086 420.26516259 -57.64193049 437.83800957 -75.20941509 455.41028501 C-83.52287287 463.72608178 -91.83569853 472.04251033 -100.14844892 480.35901422 C-128.61702207 508.84041674 -157.08664891 537.32076537 -185.55991173 565.79747963 C-187.34542273 567.58321227 -189.13093366 569.36894498 -190.91644452 571.15467777 C-192.70618203 572.94463592 -194.49591962 574.73459399 -196.28565729 576.52455199 C-199.87598707 580.11532432 -203.46631457 583.70609894 -207.05664062 587.296875 C-207.94682614 588.1871699 -208.83701165 589.0774648 -209.75417248 589.99473834 C-238.63403257 618.87823101 -267.50773729 647.76786653 -296.37776352 676.66118826 C-326.91948322 707.22750723 -357.46664063 737.78838132 -388.02006495 768.34300077 C-391.37404957 771.69715684 -394.7280122 775.0513349 -398.08195877 778.40552902 C-398.90776398 779.23139 -399.73356919 780.05725098 -400.58439881 780.90813805 C-413.86659168 794.19148098 -427.14384435 807.47975122 -440.41933486 820.76979217 C-453.76091519 834.12574252 -467.10805778 847.47611411 -480.46084403 860.82086135 C-488.39006681 868.74563107 -496.31511402 876.67452302 -504.23418334 884.60943917 C-509.52872596 889.913745 -514.82873367 895.21254844 -520.1331553 900.50697491 C-523.15217806 903.52061559 -526.16883468 906.53652013 -529.17884068 909.55916901 C-551.65767537 932.12649063 -551.65767537 932.12649063 -564 941 C-565.18880569 941.89142577 -566.37543472 942.78576096 -567.55998456 943.68283427 C-595.39053395 964.7228573 -629.59577699 976.61293834 -664 981 C-664.73766602 981.0942627 -665.47533203 981.18852539 -666.23535156 981.28564453 C-718.2061885 987.21214348 -774.16473834 972.82999391 -815.5 940.375 C-817.69039135 938.6106545 -819.85232603 936.81601144 -822 935 C-823.23169922 933.96359375 -823.23169922 933.96359375 -824.48828125 932.90625 C-837.19397605 921.80211337 -849.30164784 909.84035673 -859 896 C-859.39703125 895.44731445 -859.7940625 894.89462891 -860.203125 894.32519531 C-891.88879018 850.08057581 -904.21700545 793.42682981 -896.03515625 739.80078125 C-892.0146214 716.21657138 -884.34915379 694.03608615 -873 673 C-872.68595215 672.40670898 -872.3719043 671.81341797 -872.04833984 671.20214844 C-868.36322715 664.27467093 -864.29895469 657.77424506 -859.6875 651.4375 C-859.0855481 650.60883423 -859.0855481 650.60883423 -858.47143555 649.76342773 C-850.53482194 639.1279695 -841.64929588 629.34897409 -832.25268841 619.99821281 C-831.213605 618.95673168 -830.17495826 617.91481475 -829.13670161 616.87250942 C-826.30843695 614.03570938 -823.47408508 611.20506367 -820.63860983 608.37547336 C-817.5449609 605.28602427 -814.45714173 602.19075702 -811.36854631 599.09625733 C-805.96311524 593.68209083 -800.554 588.27162743 -795.14240646 582.86362076 C-787.09499355 574.82152762 -779.05331006 566.7737233 -771.01269897 558.72483033 C-755.81550562 543.51241371 -740.61156659 528.30675111 -725.40552517 513.10317956 C-713.66324771 501.36273607 -701.92277015 489.62049542 -690.18355751 477.87698746 C-688.49589581 476.18872335 -686.80823351 474.50045985 -685.1205706 472.81219695 C-682.57732127 470.26804034 -680.03407263 467.72388304 -677.49082787 465.17972186 C-653.8521539 441.53262105 -630.2114371 417.88756408 -606.56646252 394.24676323 C-605.67549415 393.35595124 -604.78452579 392.46513926 -603.86655839 391.54733297 C-599.35094919 387.03252953 -594.83531999 382.51774611 -590.3196828 378.00297068 C-588.97449321 376.65803773 -588.97449321 376.65803773 -587.60212808 375.28593441 C-585.78859637 373.47274936 -583.97506373 371.65956524 -582.16153015 369.84638206 C-553.93768062 341.62789074 -525.72048568 313.40276046 -497.50854492 285.17236328 C-465.80007472 253.44317343 -434.08661116 221.71898662 -402.36577016 190.00216401 C-398.9831286 186.61991778 -395.60050393 183.23765466 -392.21788979 179.85538101 C-391.38502232 179.02260428 -390.55215486 178.18982755 -389.69404899 177.33181516 C-377.12688018 164.76581182 -364.56362094 152.1959087 -352.00234032 139.62401962 C-337.71665474 125.32628145 -323.4257324 111.03380157 -309.12782022 96.74828969 C-301.12974966 88.75684557 -293.13583009 80.76130195 -285.14787026 72.75975122 C-279.80738542 67.4110145 -274.46143662 62.06778027 -269.11107111 56.72892734 C-266.06579877 53.6899039 -263.02288725 50.64862002 -259.98661222 47.60060512 C-237.31224645 24.84450852 -237.31224645 24.84450852 -225 16 C-223.81141659 15.10886644 -222.62504518 14.21477573 -221.4407832 13.31790721 C-158.55327887 -34.2286381 -68.26470359 -36.9047532 0 0 Z " fill="#3089CB" transform="translate(898,879)"/>
<path d="M0 0 C0.94536621 0.20898926 1.89073242 0.41797852 2.86474609 0.63330078 C35.09979997 8.04653022 65.02420206 23.37508915 90 45 C90.81597656 45.70511719 91.63195312 46.41023438 92.47265625 47.13671875 C127.61376331 78.15668172 150.2877272 118.17981277 160 164 C160.26901123 165.22614014 160.26901123 165.22614014 160.54345703 166.47705078 C165.71939585 191.10259487 165.36040854 220.45194371 160 245 C159.82839355 245.81307617 159.65678711 246.62615234 159.47998047 247.46386719 C150.14194129 290.67420397 128.42876965 326.97781453 97.25268841 358.00178719 C96.213605 359.04326832 95.17495826 360.08518525 94.13670161 361.12749058 C91.30843695 363.96429062 88.47408508 366.79493633 85.63860983 369.62452664 C82.5449609 372.71397573 79.45714173 375.80924298 76.36854631 378.90374267 C70.96311524 384.31790917 65.554 389.72837257 60.14240646 395.13637924 C52.09499355 403.17847238 44.05331006 411.2262767 36.01269897 419.27516967 C20.81550562 434.48758629 5.61156659 449.69324889 -9.59447483 464.89682044 C-21.33675229 476.63726393 -33.07722985 488.37950458 -44.81644249 500.12301254 C-46.50410419 501.81127665 -48.19176649 503.49954015 -49.8794294 505.18780305 C-52.42267873 507.73195966 -54.96592737 510.27611696 -57.50917213 512.82027814 C-81.1478461 536.46737895 -104.7885629 560.11243592 -128.43353748 583.75323677 C-129.32450585 584.64404876 -130.21547421 585.53486074 -131.13344161 586.45266703 C-135.64905081 590.96747047 -140.16468001 595.48225389 -144.6803172 599.99702932 C-145.57711026 600.89365129 -146.47390332 601.79027326 -147.39787192 602.71406559 C-149.21140363 604.52725064 -151.02493627 606.34043476 -152.83846985 608.15361794 C-181.06231938 636.37210926 -209.27951432 664.59723954 -237.49145508 692.82763672 C-269.19992528 724.55682657 -300.91338884 756.28101338 -332.63422984 787.99783599 C-336.0168714 791.38008222 -339.39949607 794.76234534 -342.78211021 798.14461899 C-344.03141141 799.39378409 -344.03141141 799.39378409 -345.30595101 800.66818484 C-357.87311982 813.23418818 -370.43637906 825.8040913 -382.99765968 838.37598038 C-397.28334526 852.67371855 -411.5742676 866.96619843 -425.87217978 881.25171031 C-433.87025034 889.24315443 -441.86416991 897.23869805 -449.85212974 905.24024878 C-455.19261458 910.5889855 -460.53856338 915.93221973 -465.88892889 921.27107266 C-468.93420123 924.3100961 -471.97711275 927.35137998 -475.01338778 930.39939488 C-497.93816198 953.40686703 -497.93816198 953.40686703 -510 962 C-510.88400398 962.65116606 -511.76800795 963.30233212 -512.67879993 963.97323048 C-557.20635156 996.53587721 -613.77606172 1008.50918127 -668.00439453 1000.55957031 C-709.34978377 993.67210896 -746.39809079 975.5154154 -777 947 C-778.56053766 945.6435724 -780.12300963 944.28936667 -781.6875 942.9375 C-785.84721314 939.22709386 -789.46203982 935.30104964 -793 931 C-793.42120117 930.50177734 -793.84240234 930.00355469 -794.27636719 929.49023438 C-806.76668119 914.69655697 -816.90023438 898.5774224 -825 881 C-825.53109375 879.865625 -826.0621875 878.73125 -826.609375 877.5625 C-848.98558934 827.73505365 -849.48310728 768.9027903 -830.21142578 718.04443359 C-817.66982094 686.52613203 -798.38753275 661.20889434 -774.54563618 637.41420841 C-773.51421127 636.38112961 -772.48300367 635.34783381 -771.45199123 634.31434336 C-768.63286892 631.48969945 -765.81068395 628.66813349 -762.98795983 625.84708956 C-759.91192495 622.77178987 -756.83877804 619.69360638 -753.76524848 616.61580318 C-747.67555384 610.51855124 -741.58319004 604.42397284 -735.48999428 598.33021993 C-728.18903916 591.02834895 -720.89096513 583.7236009 -713.59293142 576.41881025 C-695.95864136 558.76848254 -678.31929401 541.12321257 -660.67937787 523.47850795 C-652.33274291 515.12953531 -643.98674068 506.77993028 -635.64081446 498.43024916 C-607.06385197 469.84045459 -578.48583385 441.25171585 -549.90417957 412.66661167 C-548.11105181 410.87326228 -546.31792413 409.07991282 -544.52479653 407.28656327 C-542.72738811 405.48893422 -540.92997961 403.69130524 -539.13257104 401.89367634 C-535.52677387 398.28743662 -531.92097899 394.68119462 -528.31518555 391.07495117 C-526.97414976 389.7337513 -526.97414976 389.7337513 -525.60602235 388.36545649 C-496.60910904 359.36491152 -467.6183491 330.35822568 -438.63127301 301.34784827 C-407.97323351 270.66520936 -377.30975617 239.98801543 -346.64001197 209.31707615 C-343.27306157 205.9499543 -339.90613316 202.58281046 -336.53922081 199.21565056 C-335.7102098 198.38658378 -334.88119878 197.55751699 -334.02706622 196.70332698 C-320.69170805 183.36681863 -307.36129067 170.02538234 -294.03263407 156.68217676 C-280.63579765 143.2709699 -267.23339842 129.86534229 -253.82535598 116.46533865 C-245.86282176 108.50725765 -237.90446341 100.54505387 -229.95208244 92.5768266 C-224.63522893 87.25021014 -219.31291061 81.92909562 -213.9861781 76.61235849 C-210.95435948 73.58592222 -207.92490749 70.55722118 -204.90210531 67.52177698 C-181.98275576 44.51252435 -181.98275576 44.51252435 -170 36 C-169.15789201 35.38933373 -168.31578402 34.77866745 -167.44815761 34.14949614 C-119.63993301 -0.18165129 -57.48557072 -12.76913528 0 0 Z " fill="#3187C9" transform="translate(873,4)"/>
<path d="M0 0 C0.58668457 0.41991211 1.17336914 0.83982422 1.77783203 1.27246094 C10.05194968 7.26914818 17.63050784 13.94240563 25 21 C25.49886719 21.47163574 25.99773437 21.94327148 26.51171875 22.42919922 C62.67340449 56.7432924 86.40178474 107.59827378 88.12402344 157.60083008 C88.21989394 161.79629676 88.24659162 165.99103569 88.25 170.1875 C88.25067474 170.93710999 88.25134949 171.68671997 88.25204468 172.45904541 C88.18522012 219.43233746 72.63891815 268.51388128 41 304 C40.23816406 304.85851563 39.47632813 305.71703125 38.69140625 306.6015625 C37.17335313 308.29625249 35.64755619 309.98404469 34.11328125 311.6640625 C32.21557683 313.7617099 30.3865007 315.90103782 28.5625 318.0625 C20.82449056 326.8983506 11.45704279 334.10340266 2 341 C1.44779785 341.40331543 0.8955957 341.80663086 0.32666016 342.22216797 C-43.45157515 373.75012204 -100.15168849 386.55620241 -153.35546875 378.03515625 C-207.01854521 368.53968656 -255.23114989 340.94308879 -288 297 C-288.63784424 296.16130371 -288.63784424 296.16130371 -289.28857422 295.30566406 C-322.25369615 251.88447693 -335.0395727 195.88897833 -328.10717773 142.16162109 C-322.12704058 100.73803266 -304.61933653 61.87048644 -276.00390625 31.15625 C-274.14217233 29.15298076 -272.3826884 27.09426703 -270.625 25 C-237.37509033 -12.97810784 -185.53688578 -33.14002557 -136.375 -37.6875 C-88.13413928 -40.62976342 -39.5038188 -28.333046 0 0 Z " fill="#59347E" transform="translate(1774,1481)"/>
</svg>
